<svg width="27" height="27" viewBox="0 0 27 27" fill="none" xmlns="http://www.w3.org/2000/svg">
<path d="M13.5 0C6.04416 0 0 6.04416 0 13.5C0 16.2702 1.48142 18.8011 3.92164 20.6497C5.08634 21.5321 6.46628 22.2558 7.99864 22.7714C4.83854 20.8923 2.72093 17.4434 2.72093 13.5C2.72093 7.54688 7.54688 2.72093 13.5 2.72093C19.4531 2.72093 24.2791 7.54688 24.2791 13.5C24.2791 17.4434 22.1615 20.8923 19.0014 22.7714C20.5337 22.2558 21.9137 21.5321 23.0784 20.6497C25.5186 18.8011 27 16.2702 27 13.5C27 6.04416 20.9558 0 13.5 0Z" fill="white"/>
<path d="M23.6512 13.5C23.6512 7.89367 19.1063 3.34884 13.5 3.34884C7.89367 3.34884 3.34884 7.89367 3.34884 13.5C3.34884 15.3304 4.43969 17.0233 6.27658 18.2724C7.18289 18.8886 8.26423 19.3913 9.46816 19.7423C7.42309 18.4186 6.06977 16.1174 6.06977 13.5C6.06977 9.3964 9.3964 6.06977 13.5 6.06977C17.6036 6.06977 20.9302 9.3964 20.9302 13.5C20.9302 16.1174 19.5769 18.4186 17.5318 19.7423C18.7358 19.3913 19.8171 18.8886 20.7234 18.2724C22.5603 17.0233 23.6512 15.3304 23.6512 13.5Z" fill="white"/>
<path d="M20.3023 13.5C20.3023 9.74318 17.2568 6.69767 13.5 6.69767C9.74318 6.69767 6.69767 9.74318 6.69767 13.5C6.69767 14.3668 7.36676 15.2257 8.61493 15.8865C9.27396 16.2354 10.0734 16.516 10.9685 16.7016C10.0243 15.9541 9.4186 14.7978 9.4186 13.5C9.4186 11.2459 11.2459 9.4186 13.5 9.4186C15.7541 9.4186 17.5814 11.2459 17.5814 13.5C17.5814 14.7978 16.9757 15.9541 16.0315 16.7016C16.9266 16.516 17.726 16.2354 18.3851 15.8865C19.6332 15.2257 20.3023 14.3668 20.3023 13.5Z" fill="white"/>
<path d="M13.5 17.5814C11.4941 17.5814 9.6626 17.1516 8.32114 16.4415C7.80844 16.17 7.35593 15.8506 6.9936 15.4907C7.84482 18.2763 10.4358 20.3023 13.5 20.3023C16.5642 20.3023 19.1552 18.2763 20.0064 15.4907C19.6441 15.8506 19.1916 16.17 18.6789 16.4415C17.3374 17.1516 15.5059 17.5814 13.5 17.5814Z" fill="white"/>
<path d="M5.92351 18.7916C7.8759 20.1192 10.5555 20.9302 13.5 20.9302C16.4445 20.9302 19.1241 20.1192 21.0765 18.7916C21.8563 18.2613 22.5244 17.645 23.0455 16.9619C21.6301 20.8637 17.8906 23.6512 13.5 23.6512C9.1094 23.6512 5.36985 20.8637 3.95447 16.9619C4.47558 17.645 5.14371 18.2613 5.92351 18.7916Z" fill="white"/>
<path d="M3.54248 21.1502C6.10172 23.089 9.62328 24.2791 13.5 24.2791C17.3767 24.2791 20.8983 23.089 23.4575 21.1502C24.5031 20.3581 25.3904 19.4386 26.0743 18.4229C24.1069 23.4442 19.2187 27 13.5 27C7.7813 27 2.89309 23.4442 0.925721 18.4229C1.60956 19.4386 2.49687 20.3581 3.54248 21.1502Z" fill="white"/>
</svg>
